<svg width="22" height="30" viewBox="0 0 22 30" fill="none" xmlns="http://www.w3.org/2000/svg">
<path d="M-6.01032e-07 16.25L1.25 16.25L1.25 17.5L2.5 17.5L2.5 18.75L5 18.75L5 20L7.5 20L7.5 21.25L8.75 21.25L8.75 22.5L11.25 22.5L11.25 23.75L12.5 23.75L12.5 25L15 25L15 26.25L16.25 26.25L16.25 27.5L18.75 27.5L18.75 28.75L20 28.75L20 30L21.25 30L21.25 26.25L18.75 26.25L18.75 25L17.5 25L17.5 23.75L15 23.75L15 22.5L13.75 22.5L13.75 21.25L11.25 21.25L11.25 20L10 20L10 18.75L7.5 18.75L7.5 17.5L6.25 17.5L6.25 16.25L5 16.25L5 15L3.75 15L3.75 13.75L6.25 13.75L6.25 12.5L8.75 12.5L8.75 11.25L10 11.25L10 10L12.5 10L12.5 8.75L13.75 8.75L13.75 7.5L16.25 7.5L16.25 6.25L17.5 6.25L17.5 5L18.75 5L18.75 3.75L21.25 3.75L21.25 -9.28867e-07L20 -8.74228e-07L20 1.25L18.75 1.25L18.75 2.5L16.25 2.5L16.25 3.75L15 3.75L15 5L12.5 5L12.5 6.25L10 6.25L10 7.5L8.75 7.5L8.75 8.75L6.25 8.75L6.25 10L5 10L5 11.25L2.5 11.25L2.5 12.5L1.25 12.5L1.25 13.75L-7.1031e-07 13.75L-6.01032e-07 16.25Z" fill="white"/>
</svg>
