<svg width="48" height="63" viewBox="0 0 48 63" fill="none" xmlns="http://www.w3.org/2000/svg">
<path fill-rule="evenodd" clip-rule="evenodd" d="M20 32V33H18V37H16V39H14L14 43H12V45L10 45L10 49H8L8 53H6V55H4L4.00001 59L2.00001 59V61H0V63H6.00001V59H8L8 57L10 57V55H12L12 51H14V49H16L16 45H18V43H20V39H22V35H24V37H26V39H28V41H30V45H32V47H34V51H36V53H38V57H40V59H42V63H48V61H46V59H44V55L42 55V53H40V49H38V47H36V43H34V41H32L32 37H30L30 33H28V32V31V30H30L30 26H32L32 22H34V20L36 20V16H38V14H40V10H42V8.00001H44V4H46V2L48 2V3.01997e-06L42 2.49543e-06V4H40V6L38 6V10H36V12H34V16H32V18H30V22H28V24H26V26H24V28H22V24H20V20H18V18H16L16 14H14V12H12L12 8H10V6H8L8 4L6.00001 4V0H0V2L2.00001 2V4L4.00001 4L4 8L6 8V10H8L8 14H10L10 18H12V20L14 20L14 24H16V26H18V30H20V31V32Z" fill="white"/>
</svg>
