<svg width="88" height="16" viewBox="0 0 88 16" fill="none" xmlns="http://www.w3.org/2000/svg">
<path d="M0.6 15H5.1C6.54 15 7.86 14.46 8.8 13.18C8.04 13.46 7.2 13.6 6.28 13.6H2.36V2.4H6.08C7.24 2.4 8.3 2.6 9.18 3C8.3 1.46 6.86 0.999999 5.1 0.999999H0.6V15ZM8.8 13.18C10.84 12.42 12.18 10.66 12.18 7.86C12.18 5.46 11.04 3.82 9.18 3C9.8 4.04 10.14 5.6 10.14 7.86C10.14 10.32 9.62 12.04 8.8 13.18ZM18.6267 3.02C19.6867 2.54 20.9867 2.28 22.4267 2.28C23.8267 2.28 25.0667 2.5 26.0667 2.96C25.3067 1.6 24.1267 0.76 22.4267 0.76C20.6267 0.76 19.4067 1.62 18.6267 3.02ZM26.0667 13.02C28.0067 12.16 29.1267 10.44 29.1267 7.9C29.1267 5.48 28.0067 3.82 26.0667 2.96C26.7667 4.24 27.0867 5.98 27.0867 7.9C27.0867 9.92 26.7667 11.72 26.0667 13.02ZM18.7867 13.02C18.0267 11.72 17.6267 9.92 17.6267 7.9C17.6267 6 17.9467 4.3 18.6267 3.02C16.7467 3.9 15.5867 5.56 15.5867 7.9C15.5867 10.44 16.8067 12.14 18.7867 13.02ZM22.4267 15.24C24.1267 15.24 25.3267 14.4 26.0667 13.02C25.0667 13.48 23.8267 13.7 22.4267 13.7C21.0467 13.7 19.8067 13.48 18.7867 13.02C19.5867 14.4 20.8067 15.24 22.4267 15.24ZM35.1481 2.62C35.5281 2.48 35.9681 2.42 36.4281 2.42C36.7281 2.42 36.9881 2.44 37.2481 2.48L37.0481 1.6C36.9481 1.14 36.6481 0.76 36.0881 0.76C35.4681 0.76 35.1481 1.24 35.1481 1.82V2.62ZM43.7681 13.38C44.7881 13.04 45.4881 12.3 45.4881 11.2V0.999999H43.7681V13.38ZM41.6681 13.5L39.6681 4.98C39.2881 3.36 38.4681 2.66 37.2481 2.48L39.2081 11C39.5681 12.62 40.4281 13.32 41.6681 13.5ZM33.4281 15H35.1481V2.62C34.1281 2.96 33.4281 3.74 33.4281 5.12V15ZM42.8281 15.24C43.4281 15.24 43.7681 14.82 43.7681 14.16V13.38C43.3881 13.5 42.9481 13.56 42.4881 13.56C42.1881 13.56 41.9281 13.54 41.6681 13.5L41.8481 14.3C41.9881 14.86 42.2481 15.24 42.8281 15.24ZM53.9914 2.58C54.3314 2.48 54.7114 2.42 55.1314 2.42C55.5514 2.42 55.9314 2.48 56.2714 2.58L56.0514 1.66C55.9114 1.12 55.6714 0.76 55.1314 0.76C54.5914 0.76 54.3514 1.12 54.2114 1.66L53.9914 2.58ZM49.0914 15H50.8914L51.9514 10.72H58.3114L59.3914 15H61.1914L58.4114 4.84C58.0914 3.68 57.3514 2.9 56.2714 2.58L57.9714 9.32H52.3114L53.9914 2.58C52.9114 2.9 52.1714 3.68 51.8514 4.84L49.0914 15ZM62.7906 2.4H67.8306C67.7506 1.44 67.0506 0.999999 65.9506 0.999999H62.7906V2.4ZM69.5306 2.4H74.5706V0.999999H71.4106C70.3106 0.999999 69.6106 1.44 69.5306 2.4ZM67.8306 15H69.5306V2.4H67.8306V15ZM80.2488 7.04V2.44H87.6688V0.999999H78.5688V4.98C78.5688 6.28 78.9888 6.9 80.2488 7.04ZM80.2488 8.5C80.4288 8.48 80.6488 8.46 80.8688 8.46H87.2888V7.06H80.8688C80.6488 7.06 80.4288 7.06 80.2488 7.04V8.5ZM78.5688 15H87.8688V13.56H80.2488V8.5C78.9888 8.7 78.5688 9.5 78.5688 10.58V15Z" fill="#9BB3B3"/>
</svg>
