<svg width="48" height="34" viewBox="0 0 48 34" fill="none" xmlns="http://www.w3.org/2000/svg">
<path d="M26 34L26 32L28 32L28 30L30 30L30 26L32 26L32 22L34 22L34 20L36 20L36 16L38 16L38 14L40 14L40 10L42 10L42 8.00001L44 8.00001L44 4L46 4L46 2L48 2L48 3.8147e-06L42 3.29016e-06L42 4L40 4L40 6L38 6L38 10L36 10L36 12L34 12L34 16L32 16L32 18L30 18L30 22L28 22L28 24L26 24L26 26L24 26L24 28L22 28L22 24L20 24L20 20L18 20L18 18L16 18L16 14L14 14L14 12L12 12L12 8L10 8L10 6L8 6L8 4L6.00001 4L6.00001 1.42941e-07L-8.42323e-07 -3.81596e-07L-1.01717e-06 2L2.00001 2L2.00001 4L4.00001 4L4.00001 8L6.00001 8L6.00001 10L8 10L8 14L10 14L10 18L12 18L12 20L14 20L14 24L16 24L16 26L18 26L18 30L20 30L20 32L22 32L22 34L26 34Z" fill="white"/>
</svg>
