<?xml version="1.0" standalone="no"?>
<svg viewBox="0 0 200 200" xmlns="http://www.w3.org/2000/svg">
  <path fill="#B0AF93" d="M31.4,-55.2C43.2,-47.5,57.1,-44.2,60.8,-35.8C64.6,-27.3,58.3,-13.7,57.1,-0.7C55.9,12.3,59.8,24.6,53.3,28.3C46.9,32,29.9,27.3,19.3,35.4C8.7,43.5,4.3,64.5,-2.2,68.3C-8.6,72,-17.3,58.5,-21.5,46.6C-25.6,34.8,-25.3,24.6,-37.2,17.1C-49.1,9.6,-73.1,4.8,-78.2,-2.9C-83.3,-10.7,-69.5,-21.4,-60,-33.1C-50.5,-44.7,-45.5,-57.3,-36.2,-66.6C-26.9,-75.8,-13.5,-81.6,-1.8,-78.4C9.8,-75.2,19.5,-63,31.4,-55.2Z" transform="translate(100 100)" />
</svg>
